<?xml version="1.0" standalone="no"?>
<!DOCTYPE svg PUBLIC "-//W3C//DTD SVG 20010904//EN"
 "http://www.w3.org/TR/2001/REC-SVG-20010904/DTD/svg10.dtd">
<svg version="1.0" xmlns="http://www.w3.org/2000/svg"
 width="800.000000pt" height="800.000000pt" viewBox="0 0 800.000000 800.000000"
 preserveAspectRatio="xMidYMid meet">
<metadata>
Created by potrace 1.14, written by Peter Selinger 2001-2017
</metadata>
<g transform="translate(0.000000,800.000000) scale(0.100000,-0.100000)"
fill="#000000" stroke="none">
<path d="M2447 7644 c-1 -1 -44 -4 -95 -8 -190 -13 -362 -46 -557 -107 -139
-44 -161 -53 -330 -133 -517 -247 -957 -716 -1178 -1256 -71 -176 -134 -403
-152 -550 -4 -30 -8 -58 -10 -61 -8 -12 -18 -220 -17 -334 1 -112 7 -225 16
-270 2 -11 7 -42 10 -68 61 -455 287 -925 611 -1275 33 -36 779 -784 1658
-1663 l1598 -1598 48 50 49 51 12 -36 c34 -104 192 -103 219 2 5 20 10 90 10
155 l0 118 1438 1438 c791 791 1464 1467 1497 1502 206 225 392 544 491 843
47 142 88 308 100 405 4 30 8 63 10 73 17 87 23 386 11 513 -23 236 -87 498
-173 705 -372 903 -1259 1500 -2233 1504 -80 0 -281 -11 -315 -18 -11 -2 -40
-7 -65 -10 -139 -22 -415 -95 -495 -131 -16 -8 -55 -24 -85 -35 -101 -39 -272
-133 -397 -216 l-123 -83 -126 84 c-248 167 -577 305 -854 359 -132 25 -182
32 -303 42 -74 6 -266 11 -270 8z"/>
</g>
</svg>
