<svg version="1.1" id="Layer_1" xmlns="http://www.w3.org/2000/svg" xmlns:xlink="http://www.w3.org/1999/xlink" x="0px" y="0px"
	 width="100%" viewBox="0 0 512 512" enable-background="new 0 0 512 512" xml:space="preserve">
<path fill="#ffffff" opacity="1.000000" stroke="none"
	d="
M513.000000,198.000000
	C513.000000,301.974731 512.981812,405.449524 513.083862,508.924133
	C513.087097,512.181458 512.657166,513.106140 509.077667,513.103638
	C341.118744,512.984619 173.159729,512.983459 5.200835,513.106750
	C1.462699,513.109497 0.911850,512.177063 0.913890,508.702759
	C1.012415,340.910461 1.011227,173.118088 0.920423,5.325769
	C0.918585,1.928652 1.355227,0.884546 5.172287,0.887506
	C173.131180,1.017776 341.090210,1.014660 509.049133,0.899601
	C512.570312,0.897188 513.095581,1.728367 513.089355,5.047397
	C512.968689,69.198090 513.000000,133.349075 513.000000,198.000000
z"/>
<path fill="#F1F6E5" opacity="1.000000" stroke="none"
	d="
M340.871765,61.465546
	C369.472717,61.081284 397.798462,60.768421 426.115570,61.130432
	C437.685760,61.278351 449.070099,63.486691 457.968323,72.004326
	C466.313507,79.992653 472.953430,89.067421 472.960358,101.229179
	C473.026855,218.189346 473.027893,335.149597 472.962067,452.109741
	C472.954559,465.457458 466.204590,475.712158 456.317261,483.846191
	C447.897095,490.773285 437.988159,493.274750 426.901733,493.142212
	C393.584534,492.743744 360.259552,492.992554 326.473511,492.924377
	C324.833862,491.865906 323.964844,490.633514 323.794373,489.106232
	C323.027100,482.231903 321.500305,475.436523 321.704651,468.063019
	C322.571442,465.100464 324.752075,465.006866 326.892609,464.478210
	C333.601593,462.821198 340.550110,461.590851 345.747192,455.764801
	C346.493011,454.449280 347.267029,453.687866 348.526306,452.838745
	C354.646179,448.020203 355.712433,441.076447 357.451508,434.624573
	C359.954254,425.339600 360.342499,415.766418 360.744873,406.160767
	C361.020966,399.570068 361.498230,392.980774 361.612091,386.369812
	C361.658264,383.688416 360.673981,381.153961 361.000458,378.102966
	C361.799866,376.002197 363.375000,375.393097 364.896637,374.728363
	C377.855591,369.067139 388.974854,360.748260 398.732605,350.659149
	C418.185272,330.545837 412.118378,296.512421 386.651611,283.816406
	C368.211456,273.046509 348.759735,266.851959 327.787994,265.570129
	C325.816772,265.449677 323.760773,265.637543 321.847137,263.935242
	C321.092316,260.603516 323.401123,259.106018 325.095032,257.398590
	C339.353851,243.025833 348.509094,226.044266 351.616333,205.936829
	C351.848145,204.436768 352.138153,202.978683 353.651611,201.684143
	C354.943024,201.087585 355.970734,201.066589 356.912537,201.397781
	C365.257385,204.332260 371.802490,200.439285 377.150360,195.017670
	C387.193329,184.836151 390.972443,172.428970 387.241669,158.342285
	C384.003540,146.115829 372.984772,142.034790 362.236053,148.756973
	C359.884674,150.227524 357.945587,152.563553 354.428406,152.330521
	C351.601776,149.520859 352.325226,146.208115 352.376038,143.145706
	C352.755859,120.264038 350.196503,97.755013 344.489807,75.574570
	C343.299011,70.946304 340.383148,66.815277 340.871765,61.465546
z"/>
<path fill="#F1F6E5" opacity="1.000000" stroke="none"
	d="
M171.260727,492.507446
	C140.630066,492.898315 110.301369,493.390167 79.994843,492.780243
	C68.095955,492.540802 58.569744,485.552826 51.194412,476.411530
	C44.351784,467.930481 41.842739,458.088623 41.863987,447.001343
	C42.084629,331.872864 41.982502,216.743820 42.032742,101.614929
	C42.036785,92.347939 45.881577,84.564461 51.853420,77.540985
	C58.328300,69.925880 65.994080,64.427498 75.899925,62.631367
	C80.867683,61.730610 85.956474,61.124855 90.997902,61.070610
	C108.323578,60.884178 125.652519,61.000149 143.442719,61.015747
	C145.532608,63.242737 144.066589,65.162346 143.231735,67.058617
	C132.865814,90.603539 130.593582,115.329338 132.235916,140.678589
	C132.665207,147.304718 133.740433,153.872528 133.754120,160.918594
	C132.113708,163.774368 130.037186,162.589569 128.391891,161.761139
	C115.740227,155.390884 106.332222,164.996277 104.691689,176.057129
	C102.584808,190.262314 110.031715,205.701630 122.328499,213.219025
	C127.896271,216.622772 133.392380,217.556641 139.321732,214.412704
	C140.489853,213.793350 141.735489,213.260971 143.491333,213.470123
	C145.212250,214.520935 145.467941,216.045181 145.818878,217.477402
	C150.728928,237.515594 161.597122,253.823196 176.955521,267.334869
	C178.311981,268.528259 179.916702,269.522491 180.565277,271.760498
	C180.184891,274.580017 178.195953,275.638367 176.369629,276.742279
	C164.515366,283.907623 153.493439,292.220245 143.283905,301.531921
	C124.372284,318.780396 112.877876,339.648682 113.512085,365.937134
	C113.746834,375.667999 116.037102,385.028625 120.520645,394.156128
	C126.346840,407.224976 135.176102,417.517761 145.517776,426.626801
	C152.908157,433.136353 160.918137,438.801453 169.340775,443.898926
	C171.314438,445.093353 173.471710,446.177948 174.305267,449.072266
	C174.509567,463.775909 174.411484,478.062561 171.260727,492.507446
z"/>
<path fill="#7A470B" opacity="1.000000" stroke="none"
	d="
M132.558685,162.354965
	C129.067566,135.169342 128.696808,108.471268 135.965622,82.075989
	C137.906982,75.026237 140.701584,68.310783 143.903549,61.391914
	C147.584717,53.201431 152.646851,46.264030 158.027237,39.569778
	C162.044022,34.572128 168.200470,32.783058 173.710632,30.278933
	C191.090652,22.380497 209.687378,18.361263 228.348816,15.298411
	C244.080048,12.716485 260.038361,10.741436 276.831055,12.403911
	C270.383911,17.766245 263.155060,20.921263 256.532257,25.579144
	C265.391266,28.075855 274.189148,26.751268 282.800995,27.880325
	C298.823608,29.980965 314.875031,31.663519 329.925354,38.110790
	C330.818268,38.493298 331.602020,39.150810 332.399811,39.730934
	C334.231293,41.062733 336.040070,42.425785 337.858459,43.776436
	C336.322540,46.419430 333.655090,45.611919 331.239014,46.501629
	C335.324524,50.820526 338.752594,55.215496 341.071838,60.763424
	C351.228485,87.008957 353.779083,114.112793 354.182892,141.567841
	C354.231598,144.881546 354.415833,148.193237 354.627441,151.925262
	C356.769714,153.838654 356.829926,156.076370 356.571442,158.198822
	C355.123108,170.090622 356.113861,182.025955 355.792267,193.935471
	C355.725861,196.395782 356.048096,198.941956 354.127777,201.472473
	C351.451019,220.801422 344.040283,237.599762 331.813599,252.259430
	C328.728241,255.958725 325.274719,259.350922 321.726440,263.148773
	C320.491547,267.058838 317.421051,268.989563 314.835236,271.214996
	C309.173981,276.087189 303.037689,280.350922 296.571320,284.746185
	C292.169495,287.278076 288.072845,289.633240 283.662781,292.193176
	C282.169586,292.944489 281.018921,293.546875 279.392151,294.078522
	C267.216003,295.023315 255.415253,294.474365 243.624420,294.669434
	C241.011871,294.712646 238.266022,294.225769 235.657166,296.267151
	C234.265915,297.710388 230.393921,296.918121 232.401917,300.769348
	C228.080338,302.825226 225.157257,299.509033 221.332031,298.371887
	C220.774643,298.189484 220.555954,298.104706 220.021667,297.867432
	C219.297913,297.493011 218.892105,297.266815 218.177902,296.882538
	C210.684738,293.414825 203.792084,289.570679 196.796997,285.185730
	C191.248123,280.804382 184.670349,278.346680 180.414963,272.418060
	C167.987167,261.706055 157.279160,250.029465 150.574738,235.080765
	C147.635818,228.527924 145.361710,221.797226 143.909683,214.353607
	C142.820343,213.292755 141.989136,212.476013 141.789978,211.250931
	C139.395020,196.517914 134.022324,182.442276 132.157425,167.592667
	C131.951447,165.952499 131.558853,164.312500 132.558685,162.354965
z"/>
<path fill="#64AAAB" opacity="1.000000" stroke="none"
	d="
M171.416885,492.910645
	C171.740112,478.268158 172.530319,463.688873 173.357330,448.656982
	C175.699860,446.557098 177.456146,448.301727 179.228806,449.275269
	C184.761642,452.313782 190.440628,455.013123 196.343491,457.253967
	C209.426544,462.220428 222.874329,462.470428 236.902710,460.390869
	C241.132828,460.891266 244.504044,463.025574 248.730225,463.593628
	C249.383362,463.648102 249.646179,463.674133 250.300018,463.780457
	C254.038025,464.964508 257.471313,465.627045 261.398682,465.988190
	C275.980835,469.081818 290.240173,468.933685 304.617889,467.960083
	C310.480896,467.563080 316.206207,465.429352 322.490601,466.832642
	C323.842285,475.453735 324.876068,483.755585 325.959625,492.458679
	C288.268555,492.905945 250.527771,492.958405 212.786972,492.994659
	C199.152618,493.007751 185.518250,492.981934 171.416885,492.910645
z"/>
<path fill="#FECC8E" opacity="1.000000" stroke="none"
	d="
M386.875854,282.723511
	C398.326202,287.651276 404.702240,296.727234 408.962860,307.504578
	C415.800873,324.801392 411.534576,339.924866 398.758209,352.653473
	C388.381378,362.991486 376.955627,372.085388 362.430206,377.048737
	C361.707428,377.513672 361.385254,377.930389 360.791504,378.626648
	C356.500916,380.364380 352.412811,381.285034 347.746643,381.137146
	C345.365631,380.518433 343.396088,379.899384 341.289734,378.622894
	C339.194489,375.925476 340.317627,373.553345 341.554443,371.475433
	C346.177246,363.708923 351.986694,357.139679 360.992188,353.603699
	C361.653534,353.082153 362.193817,352.972809 362.585571,352.634766
	C362.188507,352.700134 361.982727,353.064941 361.367218,353.389008
	C351.892334,357.092651 345.581360,363.769897 340.921234,372.199615
	C340.134888,373.622070 339.824829,375.327179 337.894165,376.316193
	C332.615326,374.003082 330.137207,369.472992 330.848480,364.072296
	C331.393005,359.937866 333.102539,356.221100 335.305420,352.293854
	C335.832184,351.288452 336.236511,350.655090 336.839447,349.715942
	C338.879272,346.356018 340.930115,343.444855 343.284790,340.312866
	C344.846100,338.370056 346.719421,337.179535 347.966492,335.032745
	C342.765778,336.934418 337.942261,339.339905 332.706818,340.061981
	C328.926300,340.583344 324.250946,341.992218 321.684753,337.945648
	C319.025360,333.752075 321.787506,330.061981 324.664673,326.453064
	C325.355408,325.393677 326.000702,324.744476 326.851807,323.833313
	C328.014954,322.688629 328.998444,321.837097 330.106750,320.651367
	C330.930756,319.805511 331.566345,319.226593 332.367950,318.349854
	C333.858521,316.852631 335.115143,315.584778 336.747742,314.211060
	C341.131439,311.181763 345.275787,308.428009 350.460999,306.864075
	C360.157410,306.598114 365.810791,300.105164 372.076385,294.519531
	C376.727356,290.373322 380.787323,285.471832 386.875854,282.723511
z"/>
<path fill="#9ACD9A" opacity="1.000000" stroke="none"
	d="
M346.713562,380.234894
	C351.525269,380.058044 355.718445,378.503021 360.465698,377.892273
	C362.973663,386.547424 361.948242,395.292786 361.500549,404.028931
	C360.908264,415.585846 360.298126,427.136169 356.978821,438.332581
	C355.365540,443.774384 353.419861,449.050568 349.274170,453.719849
	C348.413513,454.520325 347.861664,455.000732 347.175110,455.723602
	C341.566559,461.288330 334.515808,463.228302 327.412354,464.897614
	C312.353333,468.436523 297.050079,469.576141 281.618378,468.973938
	C275.198547,468.723389 268.792816,468.168182 262.052917,466.867645
	C257.942108,465.969086 254.122910,465.779999 250.147903,464.837646
	C249.804428,465.051178 249.426025,465.040924 249.239151,465.010925
	C245.929184,462.834045 241.688141,463.190796 238.658173,460.081970
	C238.673447,454.677490 235.698410,451.900696 231.494980,449.954224
	C229.089844,448.840485 226.593094,447.954254 224.177231,446.878326
	C222.917587,446.317383 220.820496,446.062469 221.250046,444.200775
	C221.625595,442.573212 223.609528,442.665253 225.062851,442.574493
	C228.194626,442.378906 231.327316,442.185211 234.455444,441.974976
	C240.685043,441.556335 245.687607,439.612061 248.533340,433.178955
	C251.632477,431.958893 254.477783,432.219666 257.284729,432.217133
	C284.158478,432.192902 311.032288,432.228210 337.905975,432.176636
	C340.950470,432.170807 344.480621,432.881256 345.805786,428.226227
	C347.007416,425.561249 350.362274,426.023071 351.136566,423.444611
	C352.453003,419.060760 350.265320,416.561707 346.319519,414.501831
	C344.777863,402.937256 344.272369,391.742462 346.713562,380.234894
z"/>
<path fill="#64A9AA" opacity="1.000000" stroke="none"
	d="
M387.040955,282.524414
	C380.450409,288.833557 373.322510,294.512878 367.013641,300.989990
	C362.666870,305.452667 357.738464,307.325348 351.503906,307.854248
	C349.455261,306.210449 350.063354,304.144501 350.118286,302.191620
	C350.307190,295.471130 349.728546,294.797546 342.852844,294.764282
	C329.203278,294.698212 315.553314,294.756500 301.903503,294.734375
	C299.412994,294.730347 296.903076,294.900818 294.044128,294.034912
	C290.650269,290.064636 293.559021,287.389893 295.684204,284.171204
	C304.605560,277.465485 313.562073,271.486847 321.240173,263.529175
	C330.478394,264.825989 339.686798,264.758606 348.606506,266.892639
	C362.107635,270.122711 374.967346,274.968994 387.040955,282.524414
z"/>
<path fill="#F2C387" opacity="1.000000" stroke="none"
	d="
M354.171143,201.905869
	C354.045227,185.600601 354.314758,169.391113 354.651001,152.763138
	C358.131287,150.301376 360.852295,147.264511 364.579803,145.649338
	C374.406799,141.391190 384.360931,145.585175 388.024261,155.600937
	C394.318787,172.810730 386.133392,193.672272 369.899872,202.016083
	C364.727417,204.674667 359.675110,204.281982 354.171143,201.905869
z"/>
<path fill="#B8F8BD" opacity="1.000000" stroke="none"
	d="
M260.715637,466.383850
	C273.342743,467.761841 285.761597,468.593201 298.194885,467.916656
	C312.103271,467.159821 325.937256,465.568817 338.963287,460.107788
	C341.532623,459.030640 343.876892,457.416595 346.682678,456.008118
	C346.325958,459.685059 342.913208,460.387146 340.260071,461.682037
	C334.951263,464.273102 329.211548,465.622437 323.100281,466.868103
	C311.173096,468.791199 299.545929,470.249847 287.731506,470.015961
	C278.929688,469.841675 270.200439,469.288330 261.184570,467.642090
	C260.706390,467.212006 260.570251,466.960114 260.715637,466.383850
z"/>
<path fill="#B8F8BD" opacity="1.000000" stroke="none"
	d="
M349.321777,454.013428
	C361.064789,433.083221 360.650848,409.887268 360.980286,386.827362
	C361.018341,384.164551 360.950562,381.500214 360.902100,378.355469
	C361.031219,377.571442 361.268341,377.353638 361.825470,377.173523
	C363.985352,396.506805 362.740417,415.754639 358.840973,434.766479
	C357.408783,441.749054 355.890045,449.096588 349.321777,454.013428
z"/>
<path fill="#64A9AB" opacity="1.000000" stroke="none"
	d="
M180.141235,272.354279
	C185.774902,275.817535 191.198135,279.562347 196.804031,283.583740
	C203.546524,302.182098 215.123230,315.830017 233.796539,323.358032
	C234.619461,324.602417 234.198395,325.460815 233.480042,326.590576
	C233.095871,327.038574 232.929245,327.204773 232.490051,327.590851
	C230.771133,328.583771 229.590195,329.618744 228.726349,331.469269
	C228.382706,331.985077 228.229843,332.186554 227.823730,332.681641
	C221.507645,342.073486 219.748245,352.516205 218.483490,363.028503
	C216.985077,375.482788 216.668427,388.030518 216.075897,400.942993
	C214.315460,404.275085 211.006271,404.368317 208.425980,405.694885
	C206.500900,406.684601 204.802719,407.990631 202.691772,409.392639
	C202.104507,409.671722 201.857620,409.758331 201.221558,409.902893
	C191.590424,406.775879 185.579407,399.795380 180.184967,392.177582
	C178.181381,389.348206 176.371216,386.307861 176.545441,382.170837
	C175.695465,370.529999 177.871994,359.378571 177.358383,348.161255
	C177.249695,345.787750 178.266891,343.664429 178.972198,341.063416
	C179.129532,340.080475 179.171524,339.450928 179.623703,339.019806
	C179.974579,338.685272 179.950470,338.596497 179.423553,338.665924
	C179.216705,338.693176 179.152634,338.956451 179.138763,339.701691
	C178.812256,342.921112 177.565277,345.496826 176.735092,348.172852
	C174.314072,355.976624 174.073822,363.823730 175.481216,371.820770
	C175.908203,374.246979 176.538361,376.715790 175.815277,379.619385
	C174.645569,381.731079 172.903702,382.313141 171.131989,382.793121
	C155.442657,387.043640 139.674576,390.987335 123.893372,394.879181
	C122.761391,395.158295 121.614670,395.338989 120.043106,394.974548
	C114.337601,386.307556 112.597542,376.645294 112.201401,366.839966
	C111.074631,338.950134 123.515198,317.215668 143.731461,299.159882
	C154.944977,289.144714 167.292984,280.697205 180.141235,272.354279
z"/>
<path fill="#FECC8E" opacity="1.000000" stroke="none"
	d="
M177.291641,382.571167
	C181.139053,394.988007 190.140930,402.582336 200.642960,409.297668
	C201.237259,409.703644 201.357254,409.979553 201.327194,410.278442
	C201.295929,410.589172 201.242783,410.744476 200.954102,411.041443
	C198.526657,416.266052 199.257507,420.720062 203.038666,424.567810
	C206.392593,427.980743 207.777832,432.001221 207.465988,436.755280
	C207.168777,441.286896 207.695053,445.684998 210.747742,449.737701
	C211.290375,450.184326 211.209869,450.795807 211.582870,450.795013
	C211.763199,450.794617 211.654953,450.318665 211.011490,449.917725
	C208.025635,445.831116 207.115891,441.511749 208.014801,436.947418
	C208.959457,432.150879 208.173233,428.306213 204.136261,424.991730
	C200.289764,421.833710 198.902939,417.440521 200.402344,412.079895
	C200.924927,411.062164 201.516235,410.508545 201.803818,409.384460
	C204.881836,404.438904 209.870651,403.656464 214.835892,402.068726
	C215.755203,401.330505 216.232574,400.615051 217.408691,400.049500
	C221.680664,399.063660 225.597672,399.413361 229.914841,399.578308
	C232.706253,400.047699 235.036728,400.662323 237.693237,401.611053
	C238.853180,401.958405 239.565079,402.333130 240.613922,402.933258
	C244.030701,407.181976 243.749023,410.601013 239.931717,413.605713
	C237.881287,415.219635 235.490662,416.327515 232.870636,417.748291
	C229.801361,419.071747 227.270157,420.673737 224.449677,421.647186
	C223.660248,421.919647 222.826126,421.923950 222.016083,422.090607
	C225.080963,421.579071 228.151337,421.331360 231.598557,421.937012
	C234.941208,422.921570 237.968094,423.771667 240.769882,425.128723
	C244.221695,426.800720 247.368698,428.913635 247.978699,433.557709
	C247.629761,439.941711 245.543594,441.989777 238.913132,442.867493
	C233.321945,443.607574 227.728378,444.286987 221.227737,443.909027
	C226.344116,446.202087 230.796127,447.891327 234.938385,450.148956
	C238.359543,452.013550 241.523438,454.498505 239.209045,459.637360
	C238.982269,460.393433 238.780487,460.733704 238.170349,461.105621
	C225.394608,465.013031 213.009247,463.873932 200.705566,460.340576
	C191.231644,457.619843 182.709091,452.751495 173.706543,448.239136
	C163.534225,441.752075 153.414078,435.662201 144.612976,427.725739
	C134.420914,418.535004 125.329712,408.486298 119.736588,395.289307
	C131.649185,390.747009 144.177765,388.494232 156.398239,385.087341
	C162.437622,383.403656 168.531601,381.915741 174.983841,380.230743
	C176.905212,380.016174 176.940445,381.291870 177.291641,382.571167
z"/>
<path fill="#F2C387" opacity="1.000000" stroke="none"
	d="
M132.440308,161.937469
	C134.926987,175.361679 137.899765,188.531693 141.544724,201.564072
	C142.603073,205.348160 143.058884,209.300797 143.802734,213.566010
	C128.859131,220.690262 114.622635,214.929276 107.223030,198.986969
	C104.558266,193.245789 102.878067,187.268036 102.940887,180.764648
	C103.124657,161.740417 114.992744,153.962830 132.440308,161.937469
z"/>
<path fill="#F2C387" opacity="1.000000" stroke="none"
	d="
M238.878036,216.477112
	C230.257156,218.848587 221.719833,221.073669 213.076080,222.750000
	C209.407440,223.461456 208.187622,224.962814 208.061722,228.617828
	C207.586288,242.419128 206.610352,256.204773 206.249115,270.007477
	C206.130890,274.525574 204.561569,273.999298 201.626236,272.573853
	C169.857773,257.146637 149.562271,233.013000 144.090439,197.411331
	C138.667084,162.125214 143.428345,127.805939 153.281921,93.881111
	C157.298889,80.051155 162.794983,66.556747 163.320038,51.589283
	C187.192612,68.638840 215.128113,70.499344 242.580154,73.997711
	C249.837402,74.922546 257.157684,75.363358 264.454376,75.960838
	C266.192444,76.103157 267.952118,75.981949 271.105927,75.981949
	C267.277069,72.555283 264.534515,70.100784 261.058685,66.990059
	C278.814880,67.277588 294.598419,62.247570 310.364166,57.179893
	C313.842743,56.061756 317.209137,54.598171 320.647949,53.350948
	C322.105377,52.822350 323.620697,52.290817 323.826813,54.794300
	C325.347351,73.262810 332.852936,90.152496 337.748108,107.736885
	C345.123901,134.232101 351.544250,161.003906 350.947998,188.721771
	C350.441711,212.256516 339.172638,231.318954 323.485901,248.073975
	C318.350098,253.559525 312.684998,258.458496 306.546539,262.812286
	C304.239716,264.448395 303.217926,264.366211 302.956543,261.157227
	C302.078278,250.376251 300.785706,239.626160 300.068481,228.836563
	C299.829041,225.234207 298.257050,223.960419 295.120331,223.248901
	C286.367157,221.263397 277.653992,219.101700 268.538696,216.934525
	C268.897552,213.656952 272.201630,214.749878 274.067963,213.368866
	C275.883301,212.025574 278.735901,211.556519 278.754608,208.747803
	C278.774323,205.786499 276.155731,204.731140 273.913849,203.669159
	C270.286285,201.950760 266.458466,200.760880 262.440948,200.590942
	C255.808762,200.310425 249.163986,200.359528 242.530289,200.550186
	C238.156143,200.675888 234.066986,202.201645 230.202164,204.138016
	C226.048538,206.219086 226.094421,209.421005 229.943817,212.103210
	C232.708969,214.029953 236.437057,213.649628 238.878036,216.477112
z"/>
<path fill="#F2C286" opacity="1.000000" stroke="none"
	d="
M219.936447,260.086792
	C217.995682,250.043991 216.182327,240.410019 214.203140,230.810257
	C213.543076,227.608688 214.425827,226.876846 217.702728,227.081985
	C241.961105,228.600632 266.237823,228.643234 290.488403,226.979965
	C294.484955,226.705856 295.293335,227.588791 294.716461,231.462692
	C292.929871,243.460175 291.402008,255.499512 289.998108,267.548737
	C289.565979,271.257660 288.142639,273.179199 284.445740,274.608551
	C265.768066,281.830109 246.610291,282.781769 227.021194,280.146332
	C224.376450,279.790527 223.322571,278.741882 222.924225,276.182953
	C222.107086,270.933716 220.991730,265.730896 219.936447,260.086792
z"/>
<path fill="#154C49" opacity="1.000000" stroke="none"
	d="
M292.503479,292.425903
	C310.098389,292.745422 327.336548,292.818176 344.574799,292.879272
	C351.305511,292.903107 352.040192,293.570679 351.848083,300.161987
	C351.780884,302.467743 351.371246,304.763550 351.112976,307.468262
	C346.309357,309.588959 342.124573,312.464508 337.404846,315.077209
	C334.183929,316.686707 331.080719,317.001831 327.899811,316.834656
	C312.682648,316.035095 297.465576,316.706390 282.249603,316.868011
	C277.279602,316.920776 272.333679,316.418671 266.887268,316.493164
	C260.117615,316.468872 253.829376,316.520782 247.085526,316.321930
	C243.478409,315.124908 240.180237,315.551178 236.497681,315.321594
	C232.671387,314.538483 232.642502,311.620392 231.939392,308.658539
	C231.560196,306.530334 231.463013,304.825134 231.920105,302.712402
	C233.217194,300.938995 232.721008,299.138000 233.514740,297.286560
	C233.924576,293.764862 235.735977,292.932098 238.740173,292.948242
	C252.308090,293.021149 265.876984,292.914185 279.868896,292.845551
	C281.077759,292.468658 281.936676,292.376282 283.171814,292.040833
	C286.464294,291.269104 289.323761,290.990723 292.503479,292.425903
z"/>
<path fill="#9BE4E6" opacity="1.000000" stroke="none"
	d="
M233.079559,307.800903
	C234.690948,309.780670 232.641373,312.611877 235.598328,314.155914
	C236.181442,314.487671 236.394104,314.704529 236.827469,315.320801
	C237.042160,318.809662 239.008224,322.401825 234.411942,324.245483
	C214.286774,317.618073 202.222168,303.959015 196.739807,284.090973
	C204.174332,287.764191 211.361969,291.668060 218.795029,295.826691
	C219.209717,296.238281 219.378998,296.395081 219.820312,296.765839
	C220.092346,296.979828 219.988541,296.911987 220.023071,296.860504
	C224.640472,300.013336 228.627518,303.917053 233.079559,307.800903
z"/>
<path fill="#C18946" opacity="1.000000" stroke="none"
	d="
M239.196335,216.878754
	C235.551193,215.360229 231.769897,215.334991 228.675278,213.210464
	C224.060425,210.042252 224.058197,205.796844 229.009811,203.153442
	C232.063110,201.523438 235.299850,199.907532 238.795959,199.657104
	C251.001434,198.782837 263.304260,197.127274 275.020294,202.547424
	C277.761505,203.815613 280.903137,205.030563 280.761810,208.626083
	C280.625824,212.085388 277.525452,213.302246 274.834747,214.701569
	C272.858093,215.729523 270.729034,215.909058 268.392426,216.597382
	C267.268188,216.585571 266.384064,216.311630 265.195892,215.851501
	C264.225372,212.759384 266.727997,212.808853 268.309204,212.061188
	C270.390137,211.077225 273.213013,211.412857 274.147766,208.346802
	C269.714294,204.701935 264.446777,204.645355 259.420227,203.964462
	C251.321686,202.867493 243.245346,203.317978 235.288681,205.241104
	C233.877426,205.582199 232.079163,206.027527 231.772064,207.618805
	C231.403915,209.526459 233.472046,209.719131 235.002518,210.596008
	C237.739166,212.058395 241.236359,211.563828 242.249771,215.313171
	C241.257172,216.091629 240.406158,216.501801 239.196335,216.878754
z"/>
<path fill="#E2A965" opacity="1.000000" stroke="none"
	d="
M275.734589,207.766113
	C277.658997,210.749878 274.918060,210.756775 273.696198,211.648224
	C271.152863,213.503738 267.513000,212.670746 265.017120,215.347961
	C257.604065,215.682846 250.316238,215.700348 242.568314,215.699661
	C240.752579,212.954224 237.575653,213.631882 235.222656,211.986908
	C234.242722,209.402451 236.067657,208.673676 237.630142,208.651505
	C250.197433,208.473022 262.702026,206.098892 275.734589,207.766113
z"/>
<path fill="#99DFE0" opacity="1.000000" stroke="none"
	d="
M292.947845,292.339111
	C289.903412,292.733856 286.946655,292.790344 283.546021,292.823395
	C282.697815,292.547852 282.518463,292.184570 282.738037,291.426880
	C287.028900,288.751099 291.145264,286.358704 295.610229,283.897522
	C295.588806,286.768951 294.322266,289.388550 292.947845,292.339111
z"/>
<path fill="#F9FAF8" opacity="1.000000" stroke="none"
	d="
M233.438354,307.532837
	C227.474503,306.385925 224.049698,301.677124 220.135620,297.147278
	C224.168854,297.545593 227.604752,300.017792 231.835815,301.504242
	C232.155441,301.740570 232.643295,301.634277 232.783905,301.840576
	C233.987411,303.634796 233.317413,305.415527 233.438354,307.532837
z"/>
<path fill="#D2CFC6" opacity="1.000000" stroke="none"
	d="
M233.080063,301.710968
	C232.924530,302.046844 232.614746,302.119232 232.614746,302.119232
	C232.614746,302.119232 232.314575,302.014008 232.235016,301.877289
	C232.605438,299.204407 230.132477,298.304077 229.228775,296.508606
	C230.650284,295.119476 231.843002,296.416229 233.443695,296.906982
	C233.964127,298.485229 233.960876,299.974792 233.080063,301.710968
z"/>
<path fill="#64A9AA" opacity="1.000000" stroke="none"
	d="
M282.645325,291.175293
	C282.952789,291.511627 282.993073,291.879761 283.067749,292.523926
	C282.398926,292.848633 281.695740,292.897339 280.642395,292.882538
	C280.987549,292.281769 281.682861,291.744476 282.645325,291.175293
z"/>
<path fill="#F9FAF8" opacity="1.000000" stroke="none"
	d="
M220.107788,296.688538
	C219.777664,296.891113 219.507767,296.728241 219.161545,296.286316
	C219.401367,296.186737 219.762283,296.291992 220.107788,296.688538
z"/>
<path fill="#BBF9BB" opacity="1.000000" stroke="none"
	d="
M238.137054,461.453461
	C238.106155,460.894379 238.330307,460.580292 238.809265,460.124146
	C242.333511,461.413788 245.602966,462.845551 248.962341,464.629089
	C245.246521,464.706329 241.841095,463.131683 238.137054,461.453461
z"/>
<path fill="#BBF9BB" opacity="1.000000" stroke="none"
	d="
M260.607147,465.983459
	C260.976685,466.293060 260.956238,466.526672 260.889191,467.112122
	C257.403473,466.779694 253.964401,466.095520 250.164886,465.231262
	C253.426132,463.503021 256.768524,465.351318 260.607147,465.983459
z"/>
<path fill="#FEFEFE" opacity="1.000000" stroke="none"
	d="
M231.625214,417.355011
	C234.251740,415.524231 236.656387,414.187744 238.941864,412.671661
	C242.659729,410.205231 242.989792,407.393433 239.743195,403.684387
	C239.144577,402.340240 239.317062,401.333160 240.555084,400.337646
	C245.338730,396.534607 249.333359,392.383881 252.462250,387.683167
	C255.026855,383.830200 252.958786,378.841187 249.258041,377.839539
	C244.713867,376.609589 242.787170,378.069183 242.526031,382.750610
	C242.231964,388.022461 243.352814,393.371368 241.426788,398.874451
	C239.015625,400.062622 238.205460,398.594513 237.266968,396.666382
	C236.627747,394.982941 236.649490,393.613892 236.575150,391.856750
	C236.554382,390.402161 236.482544,389.356018 235.969482,387.976990
	C235.593216,386.264282 235.611816,384.915436 235.550415,383.162170
	C234.345627,375.661438 234.605713,368.420013 233.198425,360.928101
	C232.886261,359.645905 232.921539,358.780121 233.331848,357.512817
	C233.714340,356.887634 233.916641,356.669983 234.505951,356.232117
	C241.216660,354.810455 247.747559,356.461578 254.460754,354.598389
	C257.789551,354.524139 260.682831,354.573975 264.006500,354.543945
	C265.867096,354.538544 267.301056,354.567841 269.081512,353.882996
	C272.168915,353.442261 274.845245,353.603973 277.972351,353.538330
	C293.737427,352.482361 309.101776,352.415802 324.379425,350.753082
	C328.274261,350.329193 332.302521,349.924622 336.512787,351.634094
	C335.711517,355.246307 333.816956,358.184052 332.879974,361.599792
	C331.276001,367.447235 332.686890,372.041260 337.870361,375.703613
	C339.717896,375.917847 340.024475,377.231689 340.819031,378.678162
	C341.952118,390.249878 341.303619,401.419678 341.316406,413.034973
	C341.103821,414.653320 340.437714,415.661377 340.171753,416.776642
	C338.580719,423.449310 338.602753,423.458221 331.956055,423.489624
	C329.470856,423.501343 326.985535,423.491486 324.050415,423.491608
	C318.704651,423.491425 313.808777,423.491486 308.449738,423.491699
	C302.706116,423.494324 297.425629,423.485199 291.682190,423.520172
	C285.734070,424.619141 280.165314,423.537628 274.217163,424.303589
	C268.846954,424.579254 263.921814,424.448853 258.542419,424.491730
	C253.339706,424.490387 248.590942,424.431976 243.844894,424.518127
	C241.717072,424.556732 240.270325,424.118927 240.512299,421.205322
	C240.642212,419.659363 240.201813,418.574982 240.084198,417.450897
	C240.026917,418.256073 240.404449,418.989929 240.484711,420.153259
	C240.100662,423.374725 240.987335,424.752747 244.201630,424.570801
	C248.611130,424.321198 253.045395,424.508331 257.909302,424.508392
	C263.210632,424.504639 268.071747,424.516602 273.390717,424.473328
	C279.321442,423.387146 284.876556,424.465607 290.812195,423.690491
	C296.522736,423.427643 301.786957,423.547943 307.515564,423.508301
	C312.938782,423.508789 317.897003,423.508423 323.310791,423.508240
	C328.207916,423.336914 332.670471,423.899628 337.511047,423.136658
	C340.181091,425.003113 342.784485,425.811920 346.061920,425.825775
	C346.673218,426.033295 346.906738,426.147064 347.421997,426.529999
	C346.629761,434.102661 346.629730,434.115967 339.174469,434.100769
	C309.074524,434.039429 278.974548,433.969208 248.398865,433.920502
	C244.937103,427.350800 238.827393,425.437653 232.310898,423.509521
	C230.702850,421.601318 230.229965,419.781342 231.625214,417.355011
z"/>
<path fill="#9ACC9A" opacity="1.000000" stroke="none"
	d="
M231.375641,400.703156
	C226.733856,401.062164 222.411957,401.117126 217.636475,401.165039
	C216.223389,400.541687 216.043060,399.562744 216.046158,398.548676
	C216.103958,379.637360 216.660110,360.774292 222.364334,342.508148
	C223.555862,338.692596 225.606979,335.234985 227.748413,331.356140
	C227.968124,330.971161 227.994812,330.998779 227.978729,330.984009
	C229.210693,329.839508 230.377304,328.627289 231.764130,327.190063
	C231.974396,326.954987 232.005844,326.992096 231.983902,326.982483
	C234.252289,326.033966 235.969910,324.328674 238.117249,322.698059
	C239.045471,322.891449 239.550613,323.117462 240.401306,323.638916
	C243.000488,324.861572 245.364746,324.521667 247.677246,324.524170
	C271.328796,324.549835 294.980377,324.526031 318.631897,324.558014
	C320.936462,324.561127 323.315338,324.183807 325.826416,325.708740
	C324.964264,328.012878 323.569885,329.877472 322.617615,331.945618
	C320.518860,336.503632 322.081421,338.784210 327.030640,339.082520
	C333.572937,339.476898 339.285004,336.791321 345.130249,334.528229
	C346.914001,333.837585 348.717590,333.198181 351.086945,332.322998
	C349.977661,336.585724 346.688507,338.216278 344.264587,340.912109
	C338.248810,343.904053 331.949585,343.335693 325.940063,343.602905
	C305.765442,344.500000 285.593079,345.389923 265.437836,346.664825
	C261.965240,346.884460 258.480133,346.867859 254.571991,346.527527
	C253.870590,346.386139 253.600784,346.317596 252.959778,346.094421
	C251.659912,345.423767 251.048096,344.587280 250.902313,343.600616
	C250.305954,339.564423 247.554749,339.300354 244.300003,339.539764
	C240.466110,339.821777 241.433014,342.878387 240.738708,345.447723
	C240.417191,346.021240 240.247177,346.232513 239.726730,346.670349
	C239.071289,347.026672 238.769287,347.182892 238.447708,347.241669
	C230.202667,348.747986 230.347839,348.742035 230.597382,356.969910
	C230.968307,369.200867 231.614578,381.410767 232.594589,393.606781
	C232.779282,395.905029 232.872314,398.252350 231.375641,400.703156
z"/>
<path fill="#FCFDFC" opacity="1.000000" stroke="none"
	d="
M231.375336,401.149139
	C230.131195,384.460266 229.304276,367.906860 228.210297,351.371185
	C227.951706,347.462860 228.577530,345.319946 233.078201,345.935974
	C235.030045,346.203094 237.056015,345.928528 239.508331,345.923065
	C241.243820,345.530151 241.650589,346.549133 242.233673,347.302094
	C245.545380,351.578735 250.246429,350.889648 252.870193,345.589417
	C266.388580,344.670166 279.623230,343.885193 292.864960,343.247528
	C309.589478,342.442169 326.319824,341.756866 343.509766,341.050476
	C342.079498,343.977203 340.187134,346.873291 338.028168,350.004364
	C335.933929,351.115356 334.024200,351.437592 331.982117,351.525360
	C314.411865,352.280304 296.852112,353.240570 278.858398,354.491455
	C275.750885,354.492218 273.094269,354.489746 270.001495,354.501587
	C268.173096,354.917999 266.715027,354.953033 264.884491,355.362183
	C261.573059,355.525513 258.682068,355.475525 255.353973,355.491760
	C248.201660,356.145050 241.481049,356.690704 234.350204,356.783447
	C233.975937,357.016052 233.992508,356.991608 234.005829,356.985229
	C233.193146,357.878479 233.555923,358.951721 233.700684,360.359894
	C235.332260,367.713745 234.999847,374.895630 236.348785,382.290588
	C236.525757,384.027466 236.477371,385.370544 236.501480,387.109863
	C236.765152,388.528290 237.001984,389.553955 237.334412,390.960999
	C237.529495,392.653259 237.469498,393.969788 237.550507,395.681610
	C237.703262,398.176605 239.453262,400.063293 238.075958,402.556946
	C235.732986,402.299042 233.713959,401.795074 231.375336,401.149139
z"/>
<path fill="#9ACD99" opacity="1.000000" stroke="none"
	d="
M239.258560,324.242950
	C238.575058,323.857086 238.362198,323.678253 238.107452,323.249878
	C236.081024,317.272217 237.478592,315.202789 243.448349,315.635803
	C250.580780,316.153198 257.738617,315.851379 265.337708,316.508240
	C275.237061,316.881714 284.651245,317.529358 294.565247,317.276917
	C304.806854,317.250031 314.492859,318.977203 324.280762,318.586029
	C326.531525,318.496094 328.979523,318.067352 330.984131,320.410034
	C330.258087,321.830017 329.431274,322.781097 328.323303,323.879761
	C326.565216,324.970337 324.905731,324.995300 323.236816,324.995544
	C296.524139,324.999573 269.811462,325.008209 243.098770,324.987183
	C241.939911,324.986267 240.769028,325.023560 239.258560,324.242950
z"/>
<path fill="#AFEAB0" opacity="1.000000" stroke="none"
	d="
M295.438080,318.767120
	C285.627777,319.142700 276.239136,319.079865 266.439545,318.005676
	C265.433929,317.378998 265.283752,316.672760 265.743469,315.579132
	C289.363403,315.198029 312.748169,315.117981 336.603638,315.119232
	C335.877594,316.372314 334.680847,317.544128 333.199768,318.854034
	C325.515198,320.389801 318.117706,318.838715 310.721741,318.801025
	C305.780823,318.775848 300.811157,318.586823 295.438080,318.767120
z"/>
<path fill="#FBFDFD" opacity="1.000000" stroke="none"
	d="
M346.816711,379.655884
	C347.092896,391.319702 347.116089,402.738770 346.847198,414.921295
	C345.113251,416.365692 343.683594,416.302551 341.923340,415.324402
	C341.452911,414.765442 341.323334,414.496643 341.126587,413.785400
	C341.271393,402.301178 340.237610,391.280060 340.512207,379.788635
	C340.536621,379.041595 340.557831,378.743164 340.817474,378.064575
	C342.891876,378.259979 344.727783,378.835541 346.816711,379.655884
z"/>
<path fill="#C48D49" opacity="1.000000" stroke="none"
	d="
M367.018799,323.031372
	C366.778137,320.312744 366.533783,318.033569 366.283264,315.696808
	C370.652313,318.169250 372.060272,322.232666 370.640808,328.283234
	C370.187195,330.216888 369.431976,332.089081 369.095581,334.037872
	C368.854675,335.433258 368.724487,336.812256 370.030640,338.145721
	C377.076111,345.338226 377.742889,351.541107 372.121552,361.808167
	C372.121552,358.275604 372.082825,355.763519 372.129944,353.253082
	C372.217377,348.594421 371.529022,344.371887 367.154358,341.519104
	C364.736359,339.942261 364.849915,337.333679 365.281372,334.752686
	C365.908661,331.000336 366.441833,327.232208 367.018799,323.031372
z"/>
<path fill="#B2F2BB" opacity="1.000000" stroke="none"
	d="
M238.956787,324.375641
	C268.258057,323.981140 297.677490,323.986664 327.569519,324.009766
	C327.576630,324.610840 327.111145,325.194305 326.401886,325.916870
	C298.965912,326.035492 271.773712,326.033936 244.581726,325.952942
	C242.727097,325.947418 240.543320,326.840942 238.956787,324.375641
z"/>
<path fill="#C48D4A" opacity="1.000000" stroke="none"
	d="
M340.184204,378.271637
	C339.469757,377.382629 339.034760,376.784790 338.401062,375.987427
	C342.491364,364.757782 349.194244,356.154266 361.610840,352.951599
	C356.328674,357.965790 349.438446,361.550751 345.196228,368.147400
	C343.401642,370.938049 341.405853,373.572418 341.008118,377.334381
	C341.055939,377.684418 341.005951,377.815216 341.000183,377.884979
	C340.817505,378.157440 340.640564,378.360138 340.184204,378.271637
z"/>
<path fill="#92C3C4" opacity="1.000000" stroke="none"
	d="
M277.731934,354.251343
	C295.305389,352.322540 312.698914,351.867340 330.059998,350.873413
	C332.368835,350.741211 334.666992,350.422668 337.365845,350.214905
	C337.544067,350.672638 337.326569,351.105865 336.979767,351.750732
	C317.529541,352.970978 298.208649,353.979614 278.431213,354.947510
	C277.808350,354.759369 277.642090,354.611969 277.731934,354.251343
z"/>
<path fill="#BBF9BB" opacity="1.000000" stroke="none"
	d="
M295.487152,318.991302
	C296.514099,317.394867 298.456665,318.041046 300.213440,318.013794
	C310.828613,317.849152 321.436340,318.031952 332.466797,318.994812
	C332.470001,319.548950 332.024475,320.105713 331.331909,320.770721
	C330.304810,320.122650 329.320709,319.971405 328.308807,320.026459
	C317.492615,320.614441 306.753082,318.806671 295.487152,318.991302
z"/>
<path fill="#C48D4A" opacity="1.000000" stroke="none"
	d="
M361.996948,352.996063
	C362.309143,352.756195 362.621399,352.515717 362.949615,352.299438
	C362.963989,352.289978 363.124359,352.502136 363.216705,352.611023
	C362.963837,352.736694 362.710968,352.862335 362.232513,352.997375
	C362.006958,353.006775 362.000000,353.000000 361.996948,352.996063
z"/>
<path fill="#F6E4BF" opacity="1.000000" stroke="none"
	d="
M353.758759,331.009705
	C353.690735,331.554779 353.353119,332.250916 352.640991,331.417847
	C352.906830,331.263153 353.172668,331.108459 353.758759,331.009705
z"/>
<path fill="#F6E4BF" opacity="1.000000" stroke="none"
	d="
M356.454163,329.450806
	C356.509186,329.418945 356.399170,329.482697 356.454163,329.450806
z"/>
<path fill="#F6E4BF" opacity="1.000000" stroke="none"
	d="
M353.965179,330.954834
	C354.071716,330.872009 354.210022,330.095490 354.217957,330.989471
	C354.079041,331.065613 354.000854,330.994019 353.965179,330.954834
z"/>
<path fill="#77AA77" opacity="1.000000" stroke="none"
	d="
M347.164917,415.086792
	C350.195190,414.931824 353.792175,414.127167 352.967682,419.092743
	C352.460907,422.145020 355.666962,427.639954 348.077606,426.844788
	C347.703766,426.799133 347.466522,426.790527 347.347900,426.787415
	C344.321106,423.311493 344.921234,419.572357 346.698853,415.386017
	C347.004822,415.004974 347.107025,415.069458 347.164917,415.086792
z"/>
<path fill="#E5EFE0" opacity="1.000000" stroke="none"
	d="
M177.438782,382.463623
	C176.741577,382.085571 176.221832,381.278046 175.534454,380.296387
	C172.194290,366.256622 171.858536,352.609161 178.731689,339.239136
	C179.139542,338.797760 179.306747,338.614838 179.673813,338.745361
	C179.121170,353.383942 178.368683,367.709015 177.438782,382.463623
z"/>
<path fill="#B2F2BB" opacity="1.000000" stroke="none"
	d="
M227.648529,331.095032
	C227.348434,336.839600 223.422165,341.433228 221.990326,347.103668
	C217.575439,364.587646 216.788376,382.318878 217.136536,400.674622
	C216.708679,401.425934 216.234467,401.693848 215.484894,401.968750
	C215.237015,383.445374 215.355026,364.911926 220.069016,346.808594
	C221.527023,341.209259 223.247391,335.639771 227.648529,331.095032
z"/>
<path fill="#B2F2BB" opacity="1.000000" stroke="none"
	d="
M265.521240,315.179016
	C265.986816,315.956299 265.994995,316.634491 265.998871,317.651672
	C258.408997,317.649139 250.853851,316.889038 243.235001,316.911469
	C239.188034,316.923401 237.268951,317.938995 238.007111,322.616760
	C236.856842,325.199860 235.477005,327.042114 232.334686,326.997772
	C232.563156,326.186401 233.164352,325.399902 233.880508,324.338593
	C237.878235,322.128357 235.165634,318.584747 235.999390,315.460815
	C239.079239,314.381470 242.146042,315.363159 245.602997,315.024231
	C252.350540,315.049500 258.707214,315.064728 265.521240,315.179016
z"/>
<path fill="#B2F2BB" opacity="1.000000" stroke="none"
	d="
M231.636673,326.994019
	C231.897064,329.140350 230.583069,330.309662 228.313904,330.976013
	C228.188934,328.906342 229.583145,327.833405 231.636673,326.994019
z"/>
<path fill="#C28B48" opacity="1.000000" stroke="none"
	d="
M201.254822,410.847473
	C200.879150,410.594910 200.883209,410.265747 200.943634,409.693909
	C201.143661,409.377686 201.319443,409.304504 201.771347,409.158081
	C201.899139,409.646698 201.750793,410.208557 201.254822,410.847473
z"/>
<path fill="#BAD8CE" opacity="1.000000" stroke="none"
	d="
M179.926636,338.790955
	C179.873642,339.058838 179.423874,339.010742 179.198120,338.995728
	C179.090530,338.574829 179.208694,338.168976 179.326874,337.763123
	C179.544449,338.016418 179.762039,338.269745 179.926636,338.790955
z"/>
<path fill="#C28B48" opacity="1.000000" stroke="none"
	d="
M201.065567,411.060028
	C200.579147,417.082947 201.666809,422.275574 207.283356,425.775513
	C210.624893,427.857727 210.791855,431.559509 209.871536,434.759827
	C208.266968,440.339600 209.672638,445.232635 211.881866,450.695892
	C206.992584,448.978241 205.899277,444.515167 206.110001,440.042847
	C206.405106,433.779144 205.341248,428.627930 200.632675,423.879791
	C197.242142,420.460785 196.646393,415.582794 200.591217,411.096924
	C200.907196,410.924469 201.013290,411.014221 201.065567,411.060028
z"/>
<path fill="#A1CC98" opacity="1.000000" stroke="none"
	d="
M231.546753,416.990234
	C231.963287,418.756439 232.025986,420.571503 232.055054,422.852783
	C228.081863,423.145996 224.142303,422.973022 218.967346,422.745789
	C223.692429,420.540222 227.442688,418.789642 231.546753,416.990234
z"/>
<path fill="#97C6C7" opacity="1.000000" stroke="none"
	d="
M237.960388,402.902283
	C237.512497,400.782501 237.272964,398.762024 237.079376,396.350525
	C237.276779,395.789673 237.428223,395.619812 237.779480,395.726715
	C239.107162,396.826752 238.478699,398.930328 240.680389,399.137634
	C241.320801,399.392883 241.468491,399.787292 241.272369,400.514160
	C240.044388,401.065277 239.623352,401.813690 239.468353,403.147034
	C238.974915,403.309967 238.571838,403.155762 237.960388,402.902283
z"/>
<path fill="#C28B48" opacity="1.000000" stroke="none"
	d="
M212.059052,450.954834
	C212.312988,451.046844 212.460098,451.242401 212.607193,451.437927
	C212.402954,451.479431 212.198715,451.520905 211.869339,451.416748
	C211.744186,451.271118 211.952194,451.058350 212.059052,450.954834
z"/>
<path fill="#C28B48" opacity="1.000000" stroke="none"
	d="
M213.467972,453.493500
	C213.439285,453.436890 213.496658,453.550110 213.467972,453.493500
z"/>
<path fill="#353534" opacity="1.000000" stroke="none"
	d="
M214.001190,188.804993
	C207.195786,186.551544 201.069321,183.390427 193.938583,183.085571
	C186.171631,182.753540 178.935349,184.521606 171.427460,187.272827
	C167.075043,183.545959 164.016205,170.078293 165.991165,165.366943
	C166.828293,163.369904 168.456604,162.818939 170.352432,162.598770
	C172.647888,162.332230 174.981934,162.588806 178.073547,162.222351
	C175.596207,160.039993 173.259781,158.821701 171.217590,157.238876
	C168.978561,155.503494 167.552338,153.465973 168.073608,150.414246
	C169.747894,140.612579 180.395462,131.592133 190.319138,131.447205
	C195.229568,131.375488 199.510300,132.954544 203.251740,135.927643
	C217.743896,147.443649 221.800964,171.318054 215.555206,187.066635
	C215.307999,187.689926 214.865311,188.198746 214.001190,188.804993
z"/>
<path fill="#353534" opacity="1.000000" stroke="none"
	d="
M325.323334,182.042282
	C314.843201,180.386581 304.700409,178.900818 294.327789,180.859665
	C290.359344,181.609100 286.787994,183.426193 282.509460,184.273422
	C277.309937,178.529007 277.882660,171.603317 277.933716,164.887085
	C277.951508,162.547913 280.181152,161.852539 282.303528,161.579987
	C284.605011,161.284409 286.936981,161.676270 289.675018,161.226059
	C287.368683,159.420288 285.266632,157.904312 283.222443,156.323776
	C280.016510,153.845032 279.104980,150.829041 280.819397,147.090591
	C282.348480,143.756226 283.972626,140.472275 286.216034,137.548508
	C292.799103,128.969070 305.021210,127.650612 313.248474,134.709091
	C323.495544,143.500458 326.728760,155.391403 327.465820,168.185425
	C327.728790,172.749695 328.417206,177.554062 325.323334,182.042282
z"/>
<path fill="#FBFBFA" opacity="1.000000" stroke="none"
	d="
M325.195984,182.536606
	C327.531708,168.057755 325.946777,154.551773 318.077484,142.091934
	C308.782715,127.375038 292.405182,127.929977 284.176880,143.283707
	C283.941345,143.723175 283.691437,144.155212 283.465973,144.599701
	C279.689697,152.044174 279.694153,152.039291 286.317963,156.880692
	C288.584076,158.537018 290.825775,160.226700 294.346741,162.843658
	C289.627350,162.843658 286.259491,163.053253 282.930450,162.783585
	C279.726318,162.524017 278.941132,163.785034 279.121613,166.771606
	C279.463867,172.434601 280.127106,178.010086 282.030945,183.819000
	C276.498077,189.634323 275.299652,189.576080 273.445404,182.511215
	C268.341187,163.063354 269.603455,144.628738 283.024658,128.352249
	C295.850220,112.798088 315.535675,117.891983 324.847961,132.083252
	C334.782898,147.223389 335.715698,163.767212 331.157898,180.952942
	C330.068604,185.060211 328.295959,185.260147 325.195984,182.536606
z"/>
<path fill="#FBFAF9" opacity="1.000000" stroke="none"
	d="
M213.767822,189.264282
	C219.078278,172.875977 218.083206,157.548141 208.299835,143.262177
	C202.510010,134.807709 194.329102,130.931915 185.671204,133.206543
	C176.339218,135.658249 171.999008,143.092911 168.841034,151.483826
	C168.070816,153.530380 169.429565,154.161331 170.616150,155.001282
	C174.215897,157.549423 177.838821,160.064774 181.177658,163.533676
	C177.421570,163.533676 173.660370,163.652435 169.911224,163.491074
	C167.494537,163.387070 166.807999,164.281769 166.794052,166.639908
	C166.753052,173.562592 167.870102,180.210861 170.873474,186.904480
	C164.078201,193.103638 163.757019,193.208572 160.980774,184.710587
	C155.217010,167.067932 156.561035,149.899445 167.747833,134.810211
	C182.212555,115.299591 203.603271,120.375633 213.486557,133.906387
	C226.187546,151.294708 226.722214,169.838348 218.748947,189.205139
	C217.327301,192.658249 215.733170,192.111145 213.767822,189.264282
z"/>
<path fill="#7F4C10" opacity="1.000000" stroke="none"
	d="
M182.933182,86.710831
	C186.956604,85.866539 190.581589,86.007195 194.221786,86.410378
	C196.479477,86.660439 197.512543,87.498825 197.812531,90.082001
	C198.330521,94.542572 197.264954,96.218361 192.396835,96.011459
	C183.670670,95.640587 181.175690,96.756615 166.949188,104.193527
	C165.335297,96.092621 166.265808,93.909111 173.711685,90.092781
	C176.479843,88.673973 179.578415,87.899796 182.933182,86.710831
z"/>
<path fill="#7D4A0E" opacity="1.000000" stroke="none"
	d="
M325.503235,115.358444
	C317.512054,110.511009 309.323242,107.599365 300.194275,107.863838
	C298.416656,107.915329 295.833740,108.210899 296.508942,105.426620
	C297.055389,103.173012 294.802643,99.417381 299.573425,98.841866
	C308.694092,97.741608 317.106964,99.264877 324.616638,104.778511
	C327.638123,106.996902 329.328979,112.519157 327.812500,115.789642
	C327.277893,116.942642 326.463562,115.854210 325.503235,115.358444
z"/>
<path fill="#FEFDFC" opacity="1.000000" stroke="none"
	d="
M240.780594,243.311676
	C255.719482,248.056686 268.043121,244.532776 278.660645,231.540237
	C279.408356,240.543457 277.444519,247.558609 272.817810,253.806900
	C265.504791,263.683075 253.952225,266.595123 243.793686,261.325836
	C241.694962,260.237244 239.818375,258.934906 238.340210,256.687958
	C237.213669,255.283554 236.317429,253.424988 237.543793,252.580826
	C240.974884,250.218979 240.271469,246.810776 240.780594,243.311676
z"/>
<path fill="#740C09" opacity="1.000000" stroke="none"
	d="
M240.716461,242.886230
	C241.661865,245.924332 242.298492,248.812027 243.002106,252.003601
	C240.069977,251.628632 236.737823,250.739075 238.110397,256.052826
	C231.641663,250.987228 229.452286,243.796204 229.464417,234.518829
	C233.211807,238.292282 236.657288,240.736099 240.716461,242.886230
z"/>
<path fill="#AFEAB0" opacity="1.000000" stroke="none"
	d="
M245.639496,314.860535
	C242.948608,316.853455 239.878036,315.992035 236.410339,315.070099
	C236.013321,315.019196 235.980637,314.645630 235.974701,314.458191
	C239.074219,314.409454 242.179657,314.548126 245.639496,314.860535
z"/>
<path fill="#F1C184" opacity="1.000000" stroke="none"
	d="
M275.973267,207.675034
	C263.556580,209.124573 250.943192,210.015244 238.281738,210.023834
	C237.146545,210.024612 235.929611,209.874741 235.046936,211.441528
	C233.656174,211.391891 232.316071,211.152557 231.182770,210.534195
	C228.205368,208.909561 228.291458,206.822845 231.228378,205.094437
	C234.627533,203.094009 238.459442,202.838898 242.202499,202.453766
	C251.626755,201.484100 261.016541,201.864777 270.222565,204.250977
	C272.249420,204.776321 274.274261,205.721191 275.973267,207.675034
z"/>
<path fill="#6BADAF" opacity="1.000000" stroke="none"
	d="
M332.829010,384.820801
	C335.871857,387.526276 338.701752,389.935577 338.242035,394.427338
	C337.920654,397.567352 337.372406,400.462860 334.062531,401.582947
	C330.924713,402.644806 328.225067,401.578888 326.233887,398.918488
	C325.453094,397.875275 324.779480,396.751801 323.927673,395.336365
	C322.992279,393.971497 322.922852,392.871490 323.782837,391.366486
	C325.398163,390.854034 326.744415,390.689514 328.425232,390.501282
	C329.659912,390.736389 329.888214,391.615845 330.390076,392.242584
	C330.385559,391.300842 329.818268,390.577820 329.209595,389.536896
	C327.381439,388.058472 325.975800,386.634338 325.102478,384.794739
	C323.449219,381.312347 324.586456,377.479858 327.585052,376.212555
	C331.487396,374.563324 335.707062,376.216278 337.183411,379.743286
	C338.719452,383.412994 336.948120,384.183929 333.403564,384.010254
	C332.752625,383.878723 332.630066,383.814209 332.630066,383.814209
	C332.493866,383.864594 332.431427,383.999298 332.442810,384.218323
	C332.456177,384.476349 332.532349,384.605377 332.829010,384.820801
z"/>
<path fill="#67ABAD" opacity="1.000000" stroke="none"
	d="
M286.801605,395.869720
	C286.498962,396.937256 286.362793,397.921173 286.329071,398.908630
	C286.256683,401.027832 284.909943,401.155579 283.252472,401.065277
	C281.656799,400.978333 280.913971,400.398163 280.907349,398.670776
	C280.881317,391.889160 280.818146,385.105499 280.597809,378.328156
	C280.533813,376.360321 281.512024,376.274445 282.977539,376.100647
	C286.334137,375.702545 286.267761,377.934998 286.327820,380.524170
	C286.522797,381.620361 286.971802,381.635559 287.747650,381.164551
	C289.757660,378.101807 291.392670,374.697449 295.667511,378.820496
	C296.827972,381.319305 295.132202,382.822357 294.007812,384.296692
	C291.726135,387.288452 291.658295,389.916565 294.239716,392.732147
	C295.427551,394.027710 296.920074,395.339111 296.220032,397.738892
	C292.388367,402.611298 290.486145,399.386841 288.267822,396.185547
	C287.997070,396.000916 287.654694,395.711578 287.493530,395.557068
	C287.332336,395.402588 286.995087,395.115601 287.154053,395.279114
	C287.313019,395.442627 287.014496,395.787720 286.801605,395.869720
z"/>
<path fill="#6CAEB0" opacity="1.000000" stroke="none"
	d="
M265.165039,379.204956
	C269.609863,374.190247 275.700928,374.795441 277.633148,380.139343
	C278.167480,381.617249 279.029816,383.445648 276.449310,384.097321
	C274.910278,384.486023 273.140045,385.532013 272.852570,382.646027
	C272.745697,381.573242 272.060822,380.775238 270.835388,380.988617
	C269.700500,381.186249 269.220032,382.113953 269.107361,383.141205
	C268.762634,386.283234 268.671509,389.441528 269.305664,392.552521
	C269.533600,393.670624 270.080383,394.946716 271.422546,395.028473
	C273.187897,395.135986 273.385376,393.518860 273.736847,392.295410
	C274.008270,391.350616 273.957672,390.317932 274.169769,389.350555
	C274.657440,387.126404 276.408508,387.904938 277.793152,387.934723
	C279.697876,387.975677 279.898804,389.204712 279.501984,390.676819
	C278.985168,392.594025 278.548676,394.557831 277.781586,396.376709
	C276.642975,399.076630 275.004822,401.172272 271.561340,401.204010
	C268.002167,401.236755 265.966705,399.320160 264.749329,396.395508
	C262.415314,390.788361 262.274750,385.129700 265.165039,379.204956
z"/>
<path fill="#67ABAD" opacity="1.000000" stroke="none"
	d="
M241.505341,400.924225
	C241.098984,400.400787 241.104935,400.012970 241.071274,399.336731
	C241.017899,393.413452 240.919250,387.776886 241.027908,382.144379
	C241.078461,379.524139 239.381622,376.004883 244.616119,375.853088
	C251.054596,375.666412 254.124771,377.109070 254.925812,381.747437
	C255.796463,386.788879 253.816940,391.381226 249.197433,393.954010
	C247.186020,395.074188 245.659210,395.838013 246.019775,398.621124
	C246.456970,401.995514 243.731567,400.964111 241.505341,400.924225
z"/>
<path fill="#67ABAD" opacity="1.000000" stroke="none"
	d="
M310.485901,395.246765
	C310.975128,390.012360 311.210327,385.011108 310.469391,380.059723
	C310.012817,377.008850 310.848785,375.640991 314.070770,375.963287
	C315.719391,376.128204 317.412109,376.130798 319.059662,375.961365
	C321.459045,375.714569 322.375732,376.853638 322.470428,379.051941
	C322.579987,381.595703 320.654327,380.822144 319.321045,381.004791
	C318.045837,381.179504 316.457703,380.479797 315.596344,381.738342
	C315.115753,382.440643 315.177124,383.650452 315.293640,384.594604
	C315.498322,386.252930 316.960114,386.076202 318.032227,385.948792
	C321.305054,385.559845 322.700531,386.825623 322.036499,390.556641
	C321.089630,392.522430 318.979858,391.833862 317.924286,393.215210
	C319.105591,394.578918 321.039429,393.503326 322.422791,394.905884
	C322.503906,397.360046 324.635345,401.124390 320.471222,400.753418
	C317.210205,400.462891 312.104462,404.583282 310.546021,397.515015
	C310.278870,396.592896 310.155823,396.062927 310.485901,395.246765
z"/>
<path fill="#69ACAE" opacity="1.000000" stroke="none"
	d="
M309.282257,396.729797
	C308.613159,398.516998 309.590912,401.459076 306.790833,400.990082
	C303.624725,400.459717 299.477448,403.706604 297.253479,398.441376
	C296.450287,391.954926 295.050659,385.892822 296.799622,379.364563
	C296.858734,376.076294 298.829865,376.022858 300.922852,376.022949
	C303.669769,376.023041 302.954163,378.078430 302.986084,379.550476
	C303.067963,383.323730 303.293365,387.126221 302.940491,390.867920
	C302.547363,395.036652 304.048523,396.635986 308.557129,395.956604
	C309.123962,396.165985 309.258026,396.310577 309.282257,396.729797
z"/>
<path fill="#72B1B3" opacity="1.000000" stroke="none"
	d="
M258.149902,376.001526
	C261.111145,375.663605 262.113953,376.530975 262.028961,379.285309
	C261.833923,385.607056 261.942657,391.941101 262.055908,398.267853
	C262.096344,400.526672 261.078796,401.146637 259.039917,401.050323
	C257.393738,400.972534 256.144714,400.841888 256.170135,398.649139
	C256.251129,391.662659 256.190826,384.674622 256.201721,377.687164
	C256.203247,376.725494 256.767303,376.189209 258.149902,376.001526
z"/>
<path fill="#FDFEFE" opacity="1.000000" stroke="none"
	d="
M296.781281,379.001648
	C297.628143,385.108704 298.264496,391.215179 297.419586,397.701233
	C296.994843,398.032440 296.796356,398.024750 296.300049,398.008850
	C295.969391,395.355133 293.708557,394.093811 292.266266,392.457977
	C289.925110,389.802704 289.583374,387.544159 292.029327,384.827637
	C293.444672,383.255707 294.530762,381.387268 295.870361,379.329956
	C296.154724,379.006073 296.333740,379.004486 296.781281,379.001648
z"/>
<path fill="#CFE7E7" opacity="1.000000" stroke="none"
	d="
M346.598999,415.005249
	C347.094269,418.637634 347.183716,422.270294 347.251221,426.343628
	C344.473846,426.239807 340.972168,429.036224 338.958435,424.552734
	C341.407654,421.718689 339.648346,418.018066 341.822632,415.154785
	C343.490112,414.948578 344.841644,414.977020 346.598999,415.005249
z"/>
<path fill="#A4CCCC" opacity="1.000000" stroke="none"
	d="
M339.915527,378.451508
	C340.085754,377.950958 340.266785,377.921448 340.721130,377.923340
	C341.296753,389.668549 341.599060,401.382324 341.864990,413.564941
	C341.623871,414.139923 341.419159,414.246063 340.898193,414.211884
	C339.438660,402.372467 340.191467,390.638031 339.915527,378.451508
z"/>
<path fill="#92C3C4" opacity="1.000000" stroke="none"
	d="
M340.325989,414.357056
	C340.857727,414.053528 341.133667,414.039825 341.619202,414.032104
	C341.828613,414.033752 341.995483,414.472839 342.067017,414.696472
	C340.958099,417.864594 344.327881,422.002869 339.325378,424.105713
	C334.235718,424.107422 329.562927,424.057404 324.424255,423.954163
	C323.797089,423.761017 323.635773,423.621063 323.721130,423.276672
	C327.573334,422.972229 331.182434,422.940063 334.783173,422.749817
	C337.456390,422.608551 339.798645,422.093018 338.478607,418.371460
	C337.935089,416.839142 338.586609,415.480743 340.325989,414.357056
z"/>
<path fill="#FDFEFE" opacity="1.000000" stroke="none"
	d="
M322.903046,395.141388
	C322.278870,395.238434 321.938049,395.354980 321.624939,395.303406
	C319.408783,394.938080 315.598145,397.779968 315.451691,393.204071
	C315.313690,388.891754 319.258606,391.955048 321.541443,390.995544
	C322.431427,390.994263 322.894318,390.999146 323.704559,391.011292
	C323.981873,392.080322 323.911865,393.142090 323.820068,394.605865
	C323.598633,395.032959 323.398926,395.058044 322.903046,395.141388
z"/>
<path fill="#97C6C7" opacity="1.000000" stroke="none"
	d="
M236.223221,383.262817
	C234.099838,375.737457 234.553314,368.152802 233.140381,360.400391
	C233.317230,359.804718 233.468781,359.624847 233.853516,359.709717
	C236.439240,367.199585 235.456131,374.855682 236.907532,382.617737
	C236.712524,383.201508 236.566986,383.358429 236.223221,383.262817
z"/>
<path fill="#C4DEDF" opacity="1.000000" stroke="none"
	d="
M291.262909,424.036743
	C285.691711,425.877258 280.255249,424.654877 274.415649,424.975464
	C273.789642,424.724091 273.632599,424.510223 273.730743,423.990967
	C279.309723,422.111176 284.752167,423.334290 290.598389,423.041260
	C291.216248,423.298248 291.364380,423.515106 291.262909,424.036743
z"/>
<path fill="#8FC1C3" opacity="1.000000" stroke="none"
	d="
M234.443573,357.068298
	C240.576172,355.127411 247.394913,355.481720 254.588379,355.117249
	C255.198227,355.315796 255.356979,355.449158 255.264877,355.766296
	C248.373611,357.379608 241.629669,357.031128 234.443573,357.068298
z"/>
<path fill="#69ACAE" opacity="1.000000" stroke="none"
	d="
M258.237000,424.638672
	C253.673325,424.875183 249.377762,424.699493 245.133072,425.084625
	C240.976562,425.461700 239.330917,423.946625 239.966370,419.430115
	C240.124878,418.885193 240.288193,418.778320 240.623474,418.908386
	C240.520416,422.730194 241.741043,424.473694 245.757523,424.067322
	C249.481735,423.690552 253.275681,424.002930 257.502625,424.059082
	C258.153351,424.228180 258.340363,424.350067 258.237000,424.638672
z"/>
<path fill="#FDFEFE" opacity="1.000000" stroke="none"
	d="
M328.941895,389.589600
	C329.549438,389.627533 330.236664,389.855164 330.655212,390.323120
	C331.837677,391.645111 333.542755,392.861542 332.561249,395.001312
	C332.364105,395.431152 331.380707,395.883606 330.930817,395.749939
	C328.603943,395.058807 329.136780,392.902069 328.785156,390.835449
	C328.806122,390.281372 328.852509,390.085144 328.941895,389.589600
z"/>
<path fill="#89BEC0" opacity="1.000000" stroke="none"
	d="
M291.475677,424.268280
	C291.015259,424.131134 291.017212,423.920715 291.043640,423.395813
	C296.415039,423.065094 301.761902,423.048798 307.576355,423.085754
	C308.204285,423.268005 308.364685,423.396973 308.279663,423.713196
	C302.668823,423.998657 297.303406,424.096863 291.475677,424.268280
z"/>
<path fill="#64A9AB" opacity="1.000000" stroke="none"
	d="
M308.497131,423.939026
	C308.034210,423.900482 308.024933,423.519501 308.034424,423.329254
	C313.042755,423.098175 318.041656,423.057312 323.504181,423.044373
	C323.967834,423.072266 323.996948,423.487061 323.977692,423.694031
	C318.958954,423.926514 313.959503,423.952057 308.497131,423.939026
z"/>
<path fill="#89BEC0" opacity="1.000000" stroke="none"
	d="
M258.413086,424.873840
	C257.946625,424.805359 257.954376,424.455566 257.960388,424.280945
	C262.997742,424.008301 268.029083,423.910248 273.523193,423.748901
	C273.988831,423.894684 273.991760,424.103790 273.970673,424.625397
	C268.924286,424.939392 263.901917,424.940826 258.413086,424.873840
z"/>
<path fill="#76B3B5" opacity="1.000000" stroke="none"
	d="
M255.462128,355.992065
	C255.014038,355.950134 255.026581,355.566040 255.033020,355.374237
	C258.064972,355.091217 261.090454,354.999969 264.570801,354.894287
	C265.123962,355.051849 265.222290,355.223846 265.093384,355.587341
	C261.880798,355.863922 258.895508,355.948975 255.462128,355.992065
z"/>
<path fill="#76B3B5" opacity="1.000000" stroke="none"
	d="
M277.543274,354.006897
	C277.988068,354.038086 278.000000,354.472931 277.987305,354.689819
	C275.276184,354.965881 272.577728,355.025055 269.428650,355.100830
	C268.876892,354.944031 268.775787,354.770630 268.899475,354.396851
	C271.782318,354.122894 274.440399,354.049316 277.543274,354.006897
z"/>
<path fill="#B1D4D5" opacity="1.000000" stroke="none"
	d="
M240.862854,418.787964
	C240.795456,419.145294 240.374420,419.091858 240.167984,419.041962
	C238.196533,417.377167 239.353195,416.256104 240.930237,414.225708
	C240.930237,416.243469 240.930237,417.337067 240.862854,418.787964
z"/>
<path fill="#FDFEFE" opacity="1.000000" stroke="none"
	d="
M332.990540,384.779114
	C332.425995,384.722565 331.798126,384.487427 331.319153,384.078094
	C330.456299,383.340515 329.281128,382.108643 330.522125,381.337524
	C332.146881,380.327942 332.523743,382.069672 332.924194,383.656494
	C332.996582,384.179199 332.995422,384.350586 332.990540,384.779114
z"/>
<path fill="#B1D4D5" opacity="1.000000" stroke="none"
	d="
M268.756592,354.137146
	C269.124207,354.196472 269.067383,354.658813 269.022705,354.888123
	C268.072327,356.309235 266.791138,355.920898 265.234039,355.849304
	C264.866119,355.778870 264.922791,355.326172 264.974213,355.103027
	C265.929535,353.701660 267.206512,354.087952 268.756592,354.137146
z"/>
<path fill="#B1D4D5" opacity="1.000000" stroke="none"
	d="
M237.121552,391.260315
	C236.024124,390.413696 236.031097,389.499908 236.090424,388.247711
	C236.313507,387.765259 236.485352,387.620850 236.871735,387.735901
	C237.936478,388.605072 237.981308,389.499512 237.892792,390.760193
	C237.670486,391.237488 237.500107,391.377380 237.121552,391.260315
z"/>
<path fill="#76B3B5" opacity="1.000000" stroke="none"
	d="
M236.926239,391.417358
	C236.913376,391.003418 237.378555,391.044464 237.609711,391.071045
	C237.905838,392.459442 237.970795,393.821259 238.007523,395.593262
	C237.979309,396.003448 237.551224,395.993408 237.338272,395.976440
	C237.063263,394.583435 237.001190,393.207336 236.926239,391.417358
z"/>
<path fill="#76B3B5" opacity="1.000000" stroke="none"
	d="
M237.076584,387.581665
	C237.086288,387.995422 236.611862,387.966919 236.376770,387.938293
	C236.084198,386.549316 236.026718,385.188965 235.997131,383.419434
	C236.025009,383.010254 236.442612,383.017029 236.650345,383.030823
	C236.927673,384.419037 236.997269,385.793457 237.076584,387.581665
z"/>
<path fill="#FDFEFE" opacity="1.000000" stroke="none"
	d="
M309.513062,397.029968
	C309.129517,396.842896 309.086670,396.681335 309.016846,396.270599
	C309.363098,395.706482 309.736298,395.391602 310.360046,395.036346
	C310.654358,395.533478 310.698151,396.071014 310.638397,396.858521
	C310.307800,397.090820 310.080750,397.073151 309.513062,397.029968
z"/>
<path fill="#FDFEFE" opacity="1.000000" stroke="none"
	d="
M287.554993,380.960083
	C287.506866,381.850800 287.056763,382.716949 286.606628,383.583099
	C285.761475,383.019562 286.087311,382.185852 286.228516,381.155273
	C286.616974,380.903870 286.884979,380.919678 287.554993,380.960083
z"/>
<path fill="#8FC1C3" opacity="1.000000" stroke="none"
	d="
M234.114136,359.599243
	C234.086716,359.974457 233.625809,359.983246 233.395752,359.983917
	C233.221024,359.049927 233.276352,358.115234 233.675415,357.079712
	C234.059952,357.727234 234.100754,358.475647 234.114136,359.599243
z"/>
<path fill="#FDFEFE" opacity="1.000000" stroke="none"
	d="
M286.940613,395.969879
	C286.594086,395.772369 286.599457,395.593048 286.805145,395.203461
	C287.292145,395.159760 287.578857,395.326263 287.931305,395.746857
	C287.762207,395.996613 287.527344,395.992340 286.940613,395.969879
z"/>
<path fill="#77AA77" opacity="1.000000" stroke="none"
	d="
M240.475922,345.382263
	C240.735779,343.118225 237.469391,340.636597 240.396271,338.954163
	C243.381424,337.238220 246.897537,337.569336 250.010223,338.333435
	C252.923019,339.048492 251.715485,342.162720 252.124954,344.734985
	C248.489578,347.565735 244.725143,347.108398 240.475922,345.382263
z"/>
<path fill="#CFE7E7" opacity="1.000000" stroke="none"
	d="
M240.031677,345.375061
	C243.754089,345.203156 247.478226,345.223450 251.676453,345.208862
	C252.318558,345.202820 252.486572,345.231628 252.902710,345.325104
	C251.744644,347.007751 255.864899,350.044617 251.710541,350.964233
	C243.177185,352.853088 242.918945,352.753571 240.237259,346.192993
	C239.968338,345.946136 240.033401,345.567291 240.031677,345.375061
z"/>
<path fill="#FDFEFE" opacity="1.000000" stroke="none"
	d="
M286.985779,395.015564
	C286.776794,394.940125 286.576447,394.855225 286.376068,394.770325
	C286.544312,394.721436 286.712555,394.672546 286.943115,394.808441
	C287.005463,394.993225 286.994385,395.006134 286.985779,395.015564
z"/>
<path fill="#F9FBFB" opacity="1.000000" stroke="none"
	d="
M247.505753,388.711395
	C244.847748,386.710876 246.337814,384.023346 246.119904,381.589508
	C246.032654,380.615082 246.813095,380.207062 247.762939,380.243713
	C248.873428,380.286560 249.719757,380.827209 249.930237,381.894958
	C250.433960,384.450226 250.167969,386.834229 247.505753,388.711395
z"/>
</svg>
